<?xml version="1.0" encoding="UTF-8"?><svg width="51px" height="35px" viewBox="0 0 51 35" version="1.1" xmlns="http://www.w3.org/2000/svg" xmlns:xlink="http://www.w3.org/1999/xlink">    <!-- Generator: Sketch 50 (54983) - http://www.bohemiancoding.com/sketch -->    <title>首页logo（圆角）</title>    <desc>Created with Sketch.</desc>    <defs></defs>    <g id="Page-1" stroke="none" stroke-width="1" fill="none" fill-rule="evenodd">        <g id="大首页-v3（适用于大屏）-" transform="translate(-15.000000, -15.000000)">            <g id="首页logo（圆角）" transform="translate(15.000000, 15.000000)">                <g id="Group">                    <path d="M0.545628283,35 L5.44889332,35 C5.68717445,35 5.90989566,34.8816522 6.04324468,34.6841783 L24.0163795,8.0681229 C24.5705284,7.24749493 25.6850052,7.03147095 26.5056332,7.58561982 C26.6959324,7.71412394 26.8597755,7.8779867 26.9882567,8.0683013 L45.0632003,34.8420535 C45.1298715,34.940811 45.2412443,35 45.3604001,35 L50.4544257,35 C50.751488,35 50.9923046,34.7591834 50.9923046,34.4621211 C50.9923046,34.3515458 50.9582254,34.2436572 50.8947073,34.1531456 L27.7062269,1.11020356 C26.8530146,-0.105600317 25.1757456,-0.399538873 23.9599417,0.453673421 C23.704835,0.632699115 23.4827871,0.854703954 23.3037118,1.10977581 L0.1054068,34.1530601 C-0.0652829071,34.3961877 -0.00656038235,34.7316529 0.23656723,34.9023426 C0.327095695,34.9658988 0.435017258,35 0.545628283,35 Z" id="Combined-Shape" fill="#000000"></path>                    <path d="M12.0500668,35 L17.0571218,35 C17.260224,35 17.4460073,34.8855975 17.5374289,34.7042343 L20.162343,29.4968966 L30.9010177,29.4968966 L33.7376917,35 L38.9499454,35 C39.1479869,35 39.3085313,34.8394556 39.3085313,34.6414141 C39.3085313,34.5795455 39.2925239,34.5187293 39.2620652,34.4648777 L30.3418368,18.6937327 C30.1444398,18.3447308 29.701496,18.2218308 29.3524941,18.4192278 C29.1267966,18.5468833 28.9863163,18.7852208 28.9839434,19.0445076 L28.9272757,25.2364294 L22.0760322,25.2364294 L21.9497182,18.9810302 C21.9416234,18.5801531 21.6100862,18.2617403 21.2092092,18.2698351 C20.9516112,18.2750367 20.7160674,18.4163771 20.5902748,18.6412327 L11.7371233,34.4663419 C11.6404337,34.6391758 11.7021607,34.8576679 11.8749946,34.9543575 C11.9284915,34.9842857 11.9887674,35 12.0500668,35 Z" id="Combined-Shape" fill="#FC644A"></path>                </g>            </g>        </g>    </g></svg>