<?xml version="1.0" standalone="no"?><!DOCTYPE svg PUBLIC "-//W3C//DTD SVG 1.1//EN" "http://www.w3.org/Graphics/SVG/1.1/DTD/svg11.dtd"><svg t="1635143940526" class="icon" viewBox="0 0 1024 1024" version="1.1" xmlns="http://www.w3.org/2000/svg" p-id="2582" xmlns:xlink="http://www.w3.org/1999/xlink" width="200" height="200"><defs><style type="text/css"></style></defs><path d="M213.34016 42.65984l682.65984 0 0 938.65984-682.65984 0q-53.00224 0-90.50112-37.49888t-37.49888-90.50112l0-682.65984q0-53.00224 37.49888-90.50112t90.50112-37.49888zM810.65984 896l0-85.34016-597.34016 0q-17.67424 0-30.16704 12.4928t-12.4928 30.16704 12.4928 30.16704 30.16704 12.4928l597.34016 0zM810.65984 725.34016l0-597.34016-597.34016 0q-17.67424 0-30.16704 12.4928t-12.4928 30.16704l0 561.99168q20.992-7.33184 42.65984-7.33184l597.34016 0z" p-id="2583"></path></svg>